<?xml version="1.0" encoding="UTF-8" standalone="no"?>
<!DOCTYPE svg PUBLIC "-//W3C//DTD SVG 1.1//EN" "http://www.w3.org/Graphics/SVG/1.1/DTD/svg11.dtd">
<svg width="100%" height="100%" viewBox="0 0 331 331" version="1.1" xmlns="http://www.w3.org/2000/svg" xmlns:xlink="http://www.w3.org/1999/xlink" xml:space="preserve" xmlns:serif="http://www.serif.com/" style="fill-rule:evenodd;clip-rule:evenodd;stroke-linejoin:round;stroke-miterlimit:2;">
    <g transform="matrix(1,0,0,1,-7,0)">
        <g id="Artboard1" transform="matrix(1,0,0,1,7.86192,4.43226)">
            <rect x="-0.862" y="-4.432" width="330.748" height="330.748" style="fill:none;"/>
            <g transform="matrix(1,0,0,1,3.22346,-12.8672)">
                <g transform="matrix(1,0,0,1,-7.93069,-37.0501)">
                    <path d="M119.157,50.3C119.157,50.3 25.84,55.054 18.883,142.512L18.883,371.094L118.952,281.06L119.157,50.3Z" style="fill:rgb(186,186,186);"/>
                </g>
                <g transform="matrix(1,0,0,1,92.2649,-37.1205)">
                    <path d="M119.157,50.3C119.157,50.3 25.84,55.054 18.883,142.512L18.627,371.359L118.952,281.06L119.157,50.3Z" style="fill:rgb(230,230,230);"/>
                </g>
                <g transform="matrix(1,0,0,1,192.468,-36.9204)">
                    <path d="M119.157,50.3C119.157,50.3 25.84,55.054 18.883,142.512L18.627,371.359L118.952,281.06L119.157,50.3Z" style="fill:rgb(134,134,134);"/>
                </g>
                <g transform="matrix(1,0,0,1,-9.07667,-38.1441)">
                    <path d="M320.101,371.842L268.745,371.842C268.745,371.842 320.267,320.32 320.267,320.654L320.101,371.842Z" style="fill:rgb(187,187,187);"/>
                </g>
            </g>
        </g>
    </g>
</svg>
